<?xml version="1.0" standalone="no"?>
<!DOCTYPE svg PUBLIC "-//W3C//DTD SVG 20010904//EN"
 "http://www.w3.org/TR/2001/REC-SVG-20010904/DTD/svg10.dtd">
<svg version="1.0" xmlns="http://www.w3.org/2000/svg"
 width="440.000000pt" height="414.000000pt" viewBox="0 0 440.000000 414.000000"
 preserveAspectRatio="xMidYMid meet">
<metadata>
Created by potrace 1.16, written by Peter Selinger 2001-2019
</metadata>
<g transform="translate(0.000000,414.000000) scale(0.100000,-0.100000)"
fill="#000000" stroke="none">
<path d="M1350 3881 c0 -5 -18 -11 -40 -15 -22 -3 -40 -10 -40 -15 0 -6 -9
-12 -19 -16 -13 -4 -22 -19 -26 -45 -6 -34 -11 -40 -31 -40 -13 0 -24 -4 -24
-10 0 -5 -6 -10 -12 -10 -7 0 -28 -14 -46 -31 l-32 -30 4 -202 c2 -111 7 -217
11 -234 5 -22 4 -33 -4 -33 -6 0 -11 7 -11 15 0 8 -4 15 -10 15 -6 0 -10 -32
-10 -75 0 -43 -4 -75 -10 -75 -6 0 -10 -77 -10 -210 0 -133 4 -210 10 -210 6
0 10 -42 10 -106 0 -67 4 -103 10 -99 6 4 10 -30 10 -94 0 -61 4 -101 10 -101
19 0 10 -21 -14 -30 -13 -5 -30 -18 -38 -29 -8 -12 -18 -18 -21 -14 -4 3 -7 1
-7 -5 0 -7 -5 -12 -10 -12 -6 0 -21 -11 -33 -24 -12 -13 -32 -26 -44 -30 -13
-4 -23 -12 -23 -17 0 -5 -4 -9 -10 -9 -5 0 -23 -13 -40 -30 -17 -17 -37 -30
-45 -30 -7 0 -16 -9 -20 -19 -3 -11 -13 -22 -21 -25 -10 -4 -13 -2 -8 7 3 6
-5 0 -20 -15 -15 -16 -31 -28 -37 -28 -5 0 -32 -24 -60 -52 l-49 -53 79 -5
c44 -3 82 -8 86 -11 7 -8 -66 -25 -142 -34 -29 -4 -53 -10 -53 -15 0 -4 -16
-11 -35 -14 -19 -4 -35 -11 -35 -17 0 -5 -11 -14 -25 -19 -14 -5 -25 -14 -25
-20 0 -5 -6 -10 -14 -10 -8 0 -17 -9 -21 -19 -3 -11 -12 -22 -20 -25 -8 -3
-15 -12 -15 -21 0 -8 -6 -15 -14 -15 -8 0 -18 -5 -22 -12 -4 -7 -3 -8 4 -4 7
4 12 3 12 -3 0 -5 -5 -11 -11 -13 -15 -5 -24 -171 -14 -282 4 -47 11 -84 16
-80 5 3 9 -9 9 -25 0 -17 4 -31 9 -31 5 0 11 -18 15 -40 3 -22 10 -40 15 -40
5 0 11 -18 15 -40 3 -22 11 -40 16 -40 6 0 10 -4 10 -10 0 -17 34 -90 42 -90
5 0 8 -7 8 -15 0 -9 7 -18 15 -21 8 -4 15 -15 15 -25 0 -11 6 -22 14 -25 8 -3
17 -16 20 -30 4 -13 11 -24 16 -24 6 0 10 -5 10 -11 0 -7 11 -22 25 -35 14
-13 25 -28 25 -33 0 -6 20 -30 45 -54 25 -24 45 -48 45 -52 0 -9 105 -115 114
-115 3 0 26 -20 52 -45 25 -25 52 -45 60 -45 8 0 14 -4 14 -10 0 -5 11 -12 25
-16 14 -3 25 -10 25 -15 0 -5 6 -9 14 -9 8 0 16 -7 20 -15 3 -8 15 -15 26 -15
11 0 20 -4 20 -9 0 -5 13 -12 30 -16 17 -4 30 -11 30 -16 0 -5 11 -9 24 -9 13
0 26 -5 28 -11 2 -5 22 -13 46 -16 23 -3 42 -9 42 -13 0 -12 172 -12 180 0 4
6 35 13 70 15 63 5 63 5 131 74 38 39 69 77 69 85 0 8 4 17 9 20 4 3 11 19 15
36 3 17 13 38 21 46 13 14 15 13 15 -8 0 -13 -7 -32 -15 -42 -22 -29 -18 -46
10 -46 14 0 25 4 25 10 0 5 11 12 25 16 13 3 27 14 30 24 3 11 15 22 26 25 10
4 19 11 19 16 0 5 5 9 11 9 7 0 42 31 80 69 37 38 69 67 72 65 2 -3 37 28 78
68 40 40 76 73 80 73 14 0 147 142 154 165 4 14 10 27 14 30 10 8 41 112 44
150 l3 35 8 -32 c7 -25 13 -32 30 -30 28 3 27 -15 -4 -50 -37 -41 -44 -54 -26
-47 9 3 16 10 16 15 0 5 7 9 15 9 20 0 161 141 170 169 3 11 11 21 16 21 5 0
9 7 9 15 0 11 12 15 45 15 25 0 45 -4 45 -9 0 -5 14 -12 30 -16 17 -4 30 -10
30 -15 0 -5 14 -11 30 -15 17 -4 30 -10 30 -15 0 -4 8 -10 18 -14 19 -6 54
-28 62 -38 3 -3 18 -10 33 -13 15 -4 27 -11 27 -15 0 -4 16 -11 35 -14 19 -4
35 -11 35 -16 0 -6 7 -10 15 -10 8 0 15 -5 15 -10 0 -6 3 -9 8 -8 14 4 72 -14
72 -22 0 -5 14 -11 30 -15 17 -4 30 -10 30 -13 0 -4 14 -13 32 -21 42 -19 249
-22 255 -3 3 6 11 12 19 12 8 0 14 5 14 10 0 6 8 10 18 10 10 0 29 13 42 30
14 16 31 29 39 30 8 0 12 3 9 6 -9 8 72 84 91 85 10 0 11 2 4 6 -10 3 -10 8 1
19 8 8 19 14 25 14 18 0 41 43 41 76 0 18 5 34 11 36 7 2 13 47 16 113 5 90 9
113 25 126 28 25 26 125 -4 152 -16 13 -19 21 -10 24 8 3 12 26 12 64 0 33 4
59 10 59 6 0 10 73 10 200 0 171 2 200 15 200 12 0 15 16 15 86 0 74 -2 85
-17 82 -10 -2 -18 -15 -20 -33 -7 -48 -13 -42 -13 11 0 27 -5 65 -10 84 -6 19
-12 94 -15 167 -2 90 -8 137 -17 148 -53 63 -79 86 -107 91 -17 4 -31 10 -31
15 0 5 -9 9 -20 9 -11 0 -20 5 -20 10 0 6 -7 10 -15 10 -8 0 -15 7 -15 15 0 8
-4 15 -9 15 -5 0 -12 12 -16 27 -7 29 -40 63 -62 63 -7 0 -13 5 -13 11 0 6 -7
9 -15 5 -8 -3 -15 -1 -15 5 0 6 -7 9 -15 5 -8 -3 -21 2 -30 10 -8 9 -27 14
-42 12 -23 -2 -27 -7 -25 -25 3 -19 -2 -23 -21 -23 -21 0 -25 6 -31 40 -3 23
-10 39 -15 36 -4 -3 -11 23 -15 57 -3 34 -11 64 -16 65 -6 2 -10 15 -10 28 0
13 -4 24 -9 24 -5 0 -11 18 -15 40 -3 22 -10 40 -16 40 -5 0 -12 16 -16 35 -3
19 -10 35 -15 35 -5 0 -13 8 -16 17 -11 28 -119 133 -137 133 -9 0 -16 5 -16
10 0 6 -6 10 -14 10 -8 0 -16 5 -18 11 -2 6 -25 13 -51 16 -26 3 -47 10 -47
14 0 5 -7 9 -15 9 -8 0 -15 -4 -15 -10 0 -5 -12 -10 -26 -10 -14 0 -32 -6 -39
-12 -36 -32 -46 -38 -65 -38 -11 0 -20 5 -20 10 0 6 -9 10 -20 10 -11 0 -20 4
-20 9 0 4 -11 6 -25 4 -23 -5 -24 -3 -18 31 5 35 5 36 -24 36 -17 0 -36 7 -43
15 -14 17 -46 20 -55 5 -4 -6 -10 -8 -14 -6 -4 3 -15 -6 -25 -20 -11 -13 -24
-24 -30 -24 -6 0 -18 -9 -26 -19 -7 -11 -17 -18 -22 -15 -4 3 -23 -10 -41 -29
-17 -18 -40 -36 -49 -40 -10 -3 -18 -11 -18 -17 0 -5 -11 -10 -25 -10 -14 0
-25 4 -25 10 0 5 -16 12 -35 16 -25 4 -35 11 -35 25 0 11 -4 19 -10 19 -5 0
-10 7 -10 16 0 18 -53 74 -69 74 -6 0 -11 5 -11 10 0 17 -28 11 -39 -7 -9 -16
-10 -16 -11 5 0 25 0 25 -34 13 -17 -7 -26 -6 -30 2 -5 9 -7 9 -12 0 -7 -16
-29 -16 -53 -1 -15 9 -22 8 -36 -5 -19 -20 -35 -14 -35 12 0 13 -10 21 -35 25
-19 4 -35 11 -35 15 0 5 -16 12 -35 15 -19 4 -35 11 -35 16 0 6 -11 10 -25 10
-16 0 -25 6 -25 15 0 8 -4 15 -9 15 -5 0 -12 11 -15 24 -5 20 -14 25 -56 31
-27 4 -50 11 -50 16 0 14 -38 11 -43 -3 -4 -10 -6 -10 -6 0 -1 7 -17 12 -45
12 -26 0 -47 -5 -50 -12 -5 -10 -7 -10 -12 0 -6 14 -34 17 -34 3z m790 -321
c0 -12 7 -20 18 -20 14 -1 14 -3 -5 -19 -13 -11 -23 -24 -23 -30 0 -6 -10 -11
-23 -11 -12 0 -29 -9 -36 -19 -13 -17 -16 -18 -36 -5 -21 13 -23 13 -28 -6 -6
-24 -20 -26 -41 -5 -8 8 -20 15 -27 15 -9 0 -8 -4 1 -15 11 -13 8 -15 -14 -15
-18 0 -26 5 -26 18 0 14 -2 14 -9 3 -14 -22 -54 -22 -48 0 4 14 0 16 -23 9
-16 -5 -31 -6 -34 -2 -11 11 -6 22 12 23 9 0 12 3 5 5 -7 3 -21 0 -33 -6 -18
-10 -22 -9 -27 9 -3 12 -12 21 -19 21 -8 0 -14 6 -14 14 0 9 17 16 49 20 45 6
51 4 79 -24 17 -16 38 -30 46 -30 9 0 16 -5 16 -10 0 -6 8 -5 20 2 17 11 22
10 29 -1 7 -11 9 -11 13 0 3 9 19 12 47 11 36 -2 47 2 68 24 20 22 27 25 35
13 8 -11 9 -10 4 4 -6 20 2 47 15 47 5 0 9 -9 9 -20z m1572 -1312 c29 -20 32
-20 44 -4 19 27 48 16 52 -19 2 -17 13 -38 23 -48 23 -21 18 -49 -14 -84 -23
-26 -65 -30 -116 -12 l-31 11 0 89 c0 49 3 89 6 89 3 0 20 -10 36 -22z m-2462
-438 c0 -5 6 -10 14 -10 8 0 21 -6 28 -12 7 -7 31 -26 53 -43 22 -16 48 -39
58 -52 10 -12 25 -24 35 -27 23 -8 44 -60 29 -75 -17 -17 -40 -13 -67 12 -14
12 -54 45 -90 72 -36 27 -74 57 -84 67 -11 10 -23 18 -28 18 -12 0 -10 34 4
48 15 15 48 16 48 2z m-340 -271 c0 -4 -8 -9 -19 -12 -21 -5 -34 -60 -17 -77
5 -5 39 -10 75 -10 58 0 147 -22 161 -40 3 -4 12 -9 20 -13 61 -27 180 -145
235 -233 25 -39 45 -76 45 -82 0 -7 4 -12 8 -12 4 0 16 -25 25 -55 19 -63 23
-176 6 -207 -15 -28 3 -65 32 -70 35 -5 33 -24 -2 -34 -18 -5 -34 -15 -37 -22
-5 -17 36 -15 54 3 8 8 22 11 31 8 14 -5 13 -9 -7 -25 -12 -10 -31 -18 -41
-18 -11 0 -19 -7 -19 -16 0 -11 -5 -14 -16 -10 -9 3 -33 6 -55 6 -30 0 -37 3
-33 15 5 12 -2 15 -31 15 -20 0 -43 7 -51 14 -13 13 -8 15 38 18 47 3 50 4 25
12 -16 5 -50 31 -75 58 -26 28 -62 64 -81 82 -19 17 -41 39 -50 50 -9 10 -23
26 -32 35 -8 9 -37 43 -65 76 -27 33 -52 62 -56 63 -5 2 -8 8 -8 13 0 8 -27
43 -61 79 -8 9 -18 24 -22 33 -3 9 -11 17 -17 17 -5 0 -10 6 -10 14 0 8 -12
28 -26 45 -24 29 -31 46 -33 79 -2 23 -19 12 -24 -15 -4 -16 -10 -46 -14 -68
-8 -37 -9 -32 -21 60 -14 109 -7 161 21 159 11 -1 17 6 17 21 0 14 14 35 36
54 35 31 35 31 65 14 16 -9 29 -20 29 -24z"/>
<path d="M954 1345 c11 -8 26 -15 33 -15 7 0 13 -4 13 -10 0 -5 6 -10 13 -10
29 0 180 -142 239 -225 20 -27 45 -72 57 -100 12 -27 26 -58 31 -67 6 -10 10
-24 10 -33 0 -8 8 -30 17 -49 13 -28 19 -33 30 -25 20 17 16 67 -5 74 -18 5
-36 47 -46 110 -4 29 -43 118 -69 159 -45 73 -171 161 -270 190 -67 20 -78 20
-53 1z"/>
</g>
</svg>
